<svg width="1087" height="1023" viewBox="0 0 1087 1023" fill="none" xmlns="http://www.w3.org/2000/svg">
<path d="M0 846.166V0C310.908 15.5454 488.739 121.89 538.79 173.119V351.539C396.055 239.894 239.07 204.917 178.419 201.384V680.112C338.113 694.244 485.206 787.281 538.79 832.033C687.178 699.191 964.523 663.625 1084.65 662.447V846.166C807.655 846.166 605.329 956.868 538.79 1012.22C345.179 861.004 98.9254 838.511 0 846.166Z" fill="#231F20"/>
<path d="M538.557 353.048V172.863C720.862 28.7142 979.599 -0.256845 1086.18 3.27621V186.995C747.007 178.162 538.557 347.749 538.557 353.048Z" fill="#231F20"/>
<path d="M537.024 678.622V498.436C719.329 354.288 978.066 325.317 1084.65 328.85V512.569C745.474 503.736 537.024 673.322 537.024 678.622Z" fill="#231F20"/>
<path d="M537.024 1014.26V834.077C719.329 689.928 978.066 660.957 1084.65 664.49V848.209C745.474 839.376 537.024 1008.96 537.024 1014.26Z" fill="#231F20"/>
<rect x="537" y="901.34" width="729" height="177" transform="rotate(-90 537 901.34)" fill="#231F20"/>
<path d="M537 1016.39V836.202C719.305 692.054 978.043 663.083 1084.62 666.616V850.334C745.45 841.502 537 1011.09 537 1016.39Z" fill="#231F20"/>
<path d="M537 1011.39V831.202C719.305 687.054 978.043 658.083 1084.62 661.616V845.334C745.45 836.502 537 1006.09 537 1011.39Z" fill="#231F20"/>
<rect x="520.533" y="1022.34" width="11.6611" height="41.9682" transform="rotate(-90.878 520.533 1022.34)" fill="white"/>
</svg>
